<?xml version="1.0" encoding="UTF-8" standalone="no"?>
<!DOCTYPE svg PUBLIC "-//W3C//DTD SVG 1.1//EN"
 "http://www.w3.org/Graphics/SVG/1.1/DTD/svg11.dtd">
<!-- Generated by graphviz version 2.40.1 (20161225.0304)
 -->
<!-- Title: dependencies Pages: 1 -->
<svg width="504pt" height="211pt"
 viewBox="0.00 0.00 504.00 211.00" xmlns="http://www.w3.org/2000/svg" xmlns:xlink="http://www.w3.org/1999/xlink">
<g id="graph0" class="graph" transform="scale(1 1) rotate(0) translate(4 207)">
<title>dependencies</title>
<polygon fill="#ffffff" stroke="transparent" points="-4,4 -4,-207 500,-207 500,4 -4,4"/>
<text text-anchor="start" x="227.0091" y="-42.4" font-family="sans-serif" font-weight="bold" font-size="14.00" fill="#000000">Legend</text>
<polygon fill="#ffffb3" stroke="transparent" points="14,-10 14,-30 34,-30 34,-10 14,-10"/>
<text text-anchor="start" x="37.629" y="-15.4" font-family="sans-serif" font-size="14.00" fill="#000000"> &#160;Declarations</text>
<polygon fill="#8dd3c7" stroke="transparent" points="127,-10 127,-30 147,-30 147,-10 127,-10"/>
<text text-anchor="start" x="150.7251" y="-15.4" font-family="sans-serif" font-size="14.00" fill="#000000"> &#160;Module</text>
<polygon fill="#80b1d3" stroke="transparent" points="213,-10 213,-30 233,-30 233,-10 213,-10"/>
<text text-anchor="start" x="236.7812" y="-15.4" font-family="sans-serif" font-size="14.00" fill="#000000"> &#160;Bootstrap</text>
<polygon fill="#fdb462" stroke="transparent" points="310,-10 310,-30 330,-30 330,-10 310,-10"/>
<text text-anchor="start" x="333.6732" y="-15.4" font-family="sans-serif" font-size="14.00" fill="#000000"> &#160;Providers</text>
<polygon fill="#fb8072" stroke="transparent" points="406,-10 406,-30 426,-30 426,-10 406,-10"/>
<text text-anchor="start" x="429.7258" y="-15.4" font-family="sans-serif" font-size="14.00" fill="#000000"> &#160;Exports</text>
<g id="clust1" class="cluster">
<title>cluster_LockerModule</title>
<polygon fill="none" stroke="#000000" stroke-dasharray="1,5" points="119.5,-70 119.5,-195 376.5,-195 376.5,-70 119.5,-70"/>
</g>
<g id="clust6" class="cluster">
<title>cluster_LockerModule_providers</title>
<polygon fill="none" stroke="#000000" points="127.5,-78 127.5,-130 368.5,-130 368.5,-78 127.5,-78"/>
</g>
<!-- Locker -->
<g id="node1" class="node">
<title>Locker</title>
<ellipse fill="#fdb462" stroke="#000000" cx="322.5" cy="-104" rx="38.2626" ry="18"/>
<text text-anchor="middle" x="322.5" y="-99.8" font-family="Times,serif" font-size="14.00" fill="#000000">Locker</text>
</g>
<!-- LockerModule -->
<g id="node3" class="node">
<title>LockerModule</title>
<polygon fill="#8dd3c7" stroke="#000000" points="309.1924,-187 306.1924,-191 285.1924,-191 282.1924,-187 209.8076,-187 209.8076,-151 309.1924,-151 309.1924,-187"/>
<text text-anchor="middle" x="259.5" y="-164.8" font-family="Times,serif" font-size="14.00" fill="#000000">LockerModule</text>
</g>
<!-- Locker&#45;&gt;LockerModule -->
<g id="edge1" class="edge">
<title>Locker&#45;&gt;LockerModule</title>
<path fill="none" stroke="#000000" d="M296.6075,-117.468C296.6075,-117.468 296.6075,-140.8642 296.6075,-140.8642"/>
<polygon fill="#000000" stroke="#000000" points="293.1076,-140.8641 296.6075,-150.8642 300.1076,-140.8642 293.1076,-140.8641"/>
</g>
<!-- LockerConfig -->
<g id="node2" class="node">
<title>LockerConfig</title>
<ellipse fill="#fdb462" stroke="#000000" cx="200.5" cy="-104" rx="65.4111" ry="18"/>
<text text-anchor="middle" x="200.5" y="-99.8" font-family="Times,serif" font-size="14.00" fill="#000000">LockerConfig</text>
</g>
<!-- LockerConfig&#45;&gt;LockerModule -->
<g id="edge2" class="edge">
<title>LockerConfig&#45;&gt;LockerModule</title>
<path fill="none" stroke="#000000" d="M237.8046,-119.0757C237.8046,-119.0757 237.8046,-140.7642 237.8046,-140.7642"/>
<polygon fill="#000000" stroke="#000000" points="234.3047,-140.7642 237.8046,-150.7642 241.3047,-140.7642 234.3047,-140.7642"/>
</g>
</g>
</svg>
